# xmcd
# 
# Track frame offsets:
#     150
#     24471
#     43180
#     58835
# 
# Disc length: 1068
# 
# Revision: 0
# Processed by: cddbd v1.5.2PL0 Copyright (c) Steve Scherf et al.
# Submitted via: BonkEnc v1.0.8
# 
DISCID=31042a04
DTITLE=田村ゆかり - My wish My Love
DYEAR=2010
DGENRE=Vocal
TTITLE0=My wish My love
TTITLE1=Tiny Rainbow
TTITLE2=ラブサイン
TTITLE3=満月のセンシビリティー
EXTD=
EXTT0=
EXTT1=
EXTT2=
EXTT3=
PLAYORDER=
